#!OML:ASF G:\ViconDB\ViconDB\414\test\team2\shane.ASF
:FULLY-SPECIFIED
:DEGREES
393
root 6.29489 16.1996 28.9733 -7.78617 8.20168 -4.47854
lowerback 7.0371 -5.5514 -2.27025
upperback 1.22361 -7.43125 6.08704
thorax -1.54131 -3.73696 8.20603
lowerneck -17.6157 1.30641 -4.24279
upperneck 20.133 1.82308 5.00103
head 9.14024 1.08622 2.6607
rclavicle 3.93594e-014 -2.38542e-014
rhumerus -45.9485 -1.39565 -78.2425
rradius 30.4969
rwrist 36.1094
rhand -29.1308 -12.4515
rfingers 7.12502
rthumb -2.47806 -42.4168
lclavicle -5.85669e-014 -2.22639e-014
lhumerus -23.025 -30.9031 98.2879
lradius 36.2377
lwrist -12.1132
lhand -42.2197 6.94512
lfingers 7.12502
lthumb -15.1068 36.3738
rfemur -26.6057 -12.042 18.9494
rtibia 43.488
rfoot -6.41159 6.08043
rtoes -10.9323
lfemur 35.509 -1.5587 -10.524
ltibia -9.54166e-014
lfoot -25.0348 -9.92716
ltoes -17.0825
394
root 6.2741 16.2175 29.1769 -7.65521 8.22918 -4.6316
lowerback 6.70344 -5.55596 -1.95808
upperback 1.15018 -7.41377 6.13186
thorax -1.46974 -3.72878 8.04204
lowerneck -17.7337 1.37089 -4.0278
upperneck 20.302 1.8797 4.88669
head 9.22129 1.1165 2.59863
rclavicle -9.27952e-014 5.24792e-014
rhumerus -46.0338 -7.0206 -74.8762
rradius 26.8837
rwrist 38.6098
rhand -27.8251 -14.8969
rfingers 7.12502
rthumb -1.217 -44.8732
lclavicle -9.27952e-014 5.24792e-014
lhumerus -23.4265 -29.8892 98.7162
lradius 35.9428
lwrist -12.0857
lhand -42.0741 7.52447
lfingers 7.12502
lthumb -14.9666 36.9637
rfemur -26.1055 -12.1998 19.2781
rtibia 43.8918
rfoot -7.83855 5.93285
rtoes -10.1206
lfemur 35.9652 -1.7591 -10.1862
ltibia -7.31528e-014
lfoot -23.8374 -10.347
ltoes -18.7697
395
root 6.24654 16.2403 29.3907 -7.55108 8.29244 -4.86714
lowerback 6.21865 -5.592 -1.76788
upperback 1.14779 -7.45427 6.2967
thorax -1.19889 -3.7589 8.05359
lowerneck -17.8873 1.59488 -3.82765
upperneck 20.4419 2.20108 4.61727
head 9.28792 1.25211 2.51865
rclavicle -1.4592e-013 8.26944e-014
rhumerus -45.8704 -7.50167 -74.3665
rradius 26.0388
rwrist 39.9061
rhand -28.2538 -14.9661
rfingers 7.12502
rthumb -1.63101 -44.9396
lclavicle -1.4592e-013 8.26944e-014
lhumerus -23.7656 -28.6479 99.1856
lradius 35.5434
lwrist -12.0432
lhand -42.0619 7.76166
lfingers 7.12502
lthumb -14.9548 37.2017
rfemur -25.3814 -12.3373 19.6391
rtibia 44.0789
rfoot -9.30843 5.70249
rtoes -8.59816
lfemur 36.4058 -2.0156 -9.75643
ltibia -1.68569e-013
lfoot -22.4741 -10.7827
ltoes -20.3808
396
root 6.22253 16.2617 29.5998 -7.45029 8.31555 -5.10235
lowerback 5.83411 -5.63951 -1.48743
upperback 1.08102 -7.50198 6.45342
thorax -1.06239 -3.78633 8.0231
lowerneck -17.945 1.70869 -3.78865
upperneck 20.5867 2.37491 4.50376
head 9.3426 1.32283 2.49945
rclavicle -2.98922e-014 -2.06736e-014
rhumerus -45.7196 -8.13788 -73.8908
rradius 25.4284
rwrist 40.1956
rhand -28.2707 -15.0387
rfingers 7.12502
rthumb -1.64735 -45.0121
lclavicle -2.98922e-014 -2.06736e-014
lhumerus -24.2036 -27.1543 99.6565
lradius 35.0074
lwrist -12.2491
lhand -42.0696 7.85634
lfingers 7.12502
lthumb -14.9622 37.2959
rfemur -24.5408 -12.3729 19.9737
rtibia 44.06
rfoot -11.013 5.60618
rtoes -8.76626
lfemur 36.8236 -2.20936 -9.36629
ltibia -5.08889e-014
lfoot -20.9776 -11.0999
ltoes -22.3744
397
root 6.18869 16.2862 29.8138 -7.30478 8.42799 -5.20084
lowerback 5.37221 -5.63259 -1.38858
upperback 1.01946 -7.49363 6.50898
thorax -0.876238 -3.78615 7.97464
lowerneck -17.9594 1.75922 -3.63303
upperneck 20.6063 2.43015 4.38224
head 9.35367 1.34707 2.43929
rclavicle 1.54307e-014 -6.36111e-015
rhumerus -45.7244 -9.3008 -73.1093
rradius 24.7921
rwrist 42.1555
rhand -28.2362 -14.9275
rfingers 7.12502
rthumb -1.61406 -44.9012
lclavicle 1.54307e-014 -6.36111e-015
lhumerus -24.7493 -26.1605 100.136
lradius 34.461
lwrist -12.1836
lhand -42.228 8.14959
lfingers 7.12502
lthumb -15.1148 37.5777
rfemur -23.6342 -12.4052 20.1729
rtibia 43.9061
rfoot -12.7338 5.36836
rtoes -7.96049
lfemur 37.182 -2.51268 -9.03455
ltibia 4.45278e-014
lfoot -19.1472 -11.739
ltoes -23.7349
398
root 6.16242 16.3053 30.0266 -7.18086 8.58532 -5.14979
lowerback 4.87758 -5.62212 -1.25515
upperback 0.958048 -7.48046 6.49778
thorax -0.686032 -3.78228 7.83198
lowerneck -17.9942 1.72435 -3.68592
upperneck 20.7455 2.38699 4.42003
head 9.40931 1.32647 2.45978
rclavicle 9.31803e-015 4.77083e-015
rhumerus -45.7697 -10.2542 -72.4311
rradius 24.2234
rwrist 43.3784
rhand -28.3362 -14.5607
rfingers 7.12502
rthumb -1.7106 -44.5336
lclavicle 9.31803e-015 4.77083e-015
lhumerus -25.33 -25.4759 100.62
lradius 33.852
lwrist -11.9411
lhand -42.2594 7.74306
lfingers 7.12502
lthumb -15.145 37.1689
rfemur -22.6624 -12.7045 20.1515
rtibia 43.7251
rfoot -14.3054 5.42938
rtoes -6.8625
lfemur 37.5285 -2.78351 -8.97907
ltibia -3.81667e-014
lfoot -17.1601 -12.0535
ltoes -25.5452
399
root 6.13939 16.3314 30.2389 -7.04784 8.63723 -5.2071
lowerback 4.46243 -5.63187 -1.03805
upperback 0.846258 -7.48668 6.53638
thorax -0.593185 -3.7846 7.70977
lowerneck -17.9722 1.79346 -3.59914
upperneck 20.9334 2.47889 4.32035
head 9.46952 1.36336 2.42669
rclavicle 1.79652e-014 -3.81667e-014
rhumerus -45.8463 -10.6488 -72.1073
rradius 23.8243
rwrist 44.2656
rhand -28.4936 -14.6032
rfingers 7.12502
rthumb -1.86265 -44.5748
lclavicle 1.79652e-014 -3.81667e-014
lhumerus -26.052 -24.703 101.141
lradius 33.2561
lwrist -11.837
lhand -42.4126 7.76184
lfingers 7.12502
lthumb -15.2926 37.1765
rfemur -21.7803 -13.2287 20.3187
rtibia 43.5937
rfoot -15.6267 5.59765
rtoes -6.48034
lfemur 37.8659 -2.98108 -8.7646
ltibia -3.18055e-015
lfoot -14.8119 -12.5862
ltoes -26.6578
400
root 6.10758 16.3569 30.4469 -6.83596 8.70059 -5.3538
lowerback 4.07346 -5.54517 -0.736677
upperback 0.674473 -7.35682 6.58443
thorax -0.60509 -3.7141 7.55575
lowerneck -17.9946 1.73368 -3.65056
upperneck 21.2068 2.39491 4.37178
head 9.5719 1.3244 2.4496
rclavicle 1.22352e-013 -1.19271e-013
rhumerus -46.105 -11.4901 -71.6514
rradius 23.7097
rwrist 44.552
rhand -28.6602 -14.563
rfingers 7.12502
rthumb -2.02357 -44.5331
lclavicle 1.22352e-013 -1.19271e-013
lhumerus -26.8111 -24.17 101.646
lradius 32.7295
lwrist -11.4943
lhand -42.1621 7.3814
lfingers 7.12502
lthumb -15.0513 36.8143
rfemur -21.1532 -13.8576 20.6876
rtibia 43.57
rfoot -16.5875 5.70394
rtoes -6.16787
lfemur 38.0136 -3.20606 -8.40495
ltibia -9.54166e-015
lfoot -11.9679 -12.9902
ltoes -27.2728
401
root 6.0724 16.3847 30.6489 -6.81981 8.82629 -5.52273
lowerback 3.89136 -5.48574 -0.575246
upperback 0.619603 -7.27162 6.64029
thorax -0.584919 -3.67018 7.50588
lowerneck -17.9682 1.66903 -3.70302
upperneck 21.2966 2.2989 4.44974
head 9.6012 1.28395 2.47493
rclavicle 3.61291e-014 2.06736e-014
rhumerus -46.065 -11.5238 -71.8742
rradius 23.6143
rwrist 43.7472
rhand -28.6742 -14.5516
rfingers 7.12502
rthumb -2.0371 -44.5216
lclavicle 3.61291e-014 2.06736e-014
lhumerus -27.2706 -23.6263 101.91
lradius 32.0307
lwrist -12.012
lhand -41.9099 7.5328
lfingers 7.12502
lthumb -14.8084 36.9837
rfemur -20.4505 -14.4313 21.0178
rtibia 43.6463
rfoot -17.4188 5.83254
rtoes -6.82434
lfemur 36.227 -3.44165 -8.01419
ltibia 4.37594
lfoot -11.2988 -13.0405
ltoes -27.9468
